<?xml version="1.0" encoding="UTF-8" standalone="no"?>
<!-- Created with Inkscape (http://www.inkscape.org/) -->

<svg
   version="1.1"
   id="svg1791"
   width="900.88068"
   height="1111.1461"
   viewBox="0 0 900.88068 1111.1461"
   sodipodi:docname="4b.svg"
   inkscape:version="1.2.2 (732a01da63, 2022-12-09, custom)"
   xmlns:inkscape="http://www.inkscape.org/namespaces/inkscape"
   xmlns:sodipodi="http://sodipodi.sourceforge.net/DTD/sodipodi-0.dtd"
   xmlns="http://www.w3.org/2000/svg"
   xmlns:svg="http://www.w3.org/2000/svg">
  <defs
     id="defs1795" />
  <sodipodi:namedview
     id="namedview1793"
     pagecolor="#ffffff"
     bordercolor="#000000"
     borderopacity="0.25"
     inkscape:showpageshadow="2"
     inkscape:pageopacity="0.0"
     inkscape:pagecheckerboard="0"
     inkscape:deskcolor="#d1d1d1"
     showgrid="false"
     inkscape:zoom="0.7366548"
     inkscape:cx="409.96135"
     inkscape:cy="555.21256"
     inkscape:window-width="1920"
     inkscape:window-height="1031"
     inkscape:window-x="0"
     inkscape:window-y="25"
     inkscape:window-maximized="1"
     inkscape:current-layer="layer1" />
  <g
     inkscape:groupmode="layer"
     id="layer1"
     inkscape:label="Layer 1">
    <g
       id="layer6"
       inkscape:label="Base"
       style="display:inline">
      <path
         id="path1909"
         style="fill:#000000;stroke-width:1.33333"
         d="m 331.71259,7.059493 c -0.25387,-0.2288946 -2.6205,0.9664622 -5.25977,2.6542968 -14.28326,9.1343372 -25.84015,42.6451802 -22.5957,65.5214842 2.78656,19.64778 10.51096,34.300216 27.75391,52.644536 6.43709,6.84825 13.05078,14.64053 14.69726,17.3164 2.58802,4.20606 8.27539,18.66212 8.27539,21.0332 0,0.44754 -6.75002,0.90626 -15,1.01954 -12.03399,0.16521 -17.37281,0.91841 -27,3.80859 -6.59998,1.9814 -14.65971,4.12955 -17.91015,4.77539 -3.25047,0.64584 -9.00055,3.30373 -12.7793,5.90625 -13.98991,9.63522 -45.88289,17.0105 -70.54492,16.3125 l -13.67969,-0.38672 -5.49609,4.95313 c -3.02207,2.72428 -8.49349,6.47399 -12.16016,8.33203 -8.31703,4.21455 -9.96284,7.15876 -9.0332,16.16601 1.00017,9.6908 5.27115,18.7661 10.15039,21.56641 2.98497,1.71314 3.83023,3.00362 3.31445,5.05859 -0.40682,1.62093 0.37769,4.07854 1.90039,5.95899 2.18493,2.69827 4.19496,3.33224 12.8125,4.03711 11.81688,0.96654 23.25892,6.14905 44.75977,20.27343 12.37223,8.12762 12.65604,8.42815 12.21875,12.98633 -0.9596,10.00263 -9.21924,20.62379 -20.82618,26.78125 -4.50482,2.38981 -6.06054,4.00237 -6.06054,6.28321 0,3.87357 2.88418,9.51388 6.57226,12.85156 l 2.84571,2.57422 -6.375,6.52734 c -6.96391,7.12889 -12.03114,10.31641 -16.39844,10.31641 -2.30366,0 -2.65844,0.55166 -1.92774,3 1.69421,5.67669 4.83867,9.2282 10.35352,11.69726 l 5.52734,2.47657 -3.74023,1.41992 c -2.0562,0.78176 -10.05418,1.97036 -17.77344,2.64062 -21.50794,1.86759 -29.73681,7.1518 -32.91015,21.13281 -1.36816,6.02782 -2.29893,7.20108 -10.17383,12.83594 -4.76667,3.41077 -11.51669,7.50495 -15,9.09766 -4.91902,2.24914 -6.33203,3.58916 -6.33203,6.00586 0,4.92679 3.47822,11.95644 7.08593,14.32031 l 3.3086,2.16797 -4.4668,7.41797 c -9.74013,16.17508 -8.56676,34.92851 2.95703,47.26172 3.14907,3.37025 3.2058,3.79599 1.91016,14.1289 -0.73471,5.85937 -0.98027,16.91531 -0.54688,24.56836 0.9778,17.26657 -0.61523,21.32289 -10.00976,25.50586 l -6.23828,2.7793 5.70507,2.50586 c 12.08718,5.3091 24.08747,4.40473 32.20508,-2.42578 l 3.84375,-3.23438 1.63282,9.68164 c 3.10422,18.40402 6.97436,25.2779 17.4375,30.97266 l 6.50781,3.54297 v 11.25 c 0,6.18756 -0.35427,11.25 -0.78906,11.25 -4.98631,0 -31.84869,6.89623 -47.73829,12.25586 -18.38122,6.20005 -21.54759,6.86608 -36.27734,7.6289 -14.68281,0.76038 -16.64231,1.17 -21.742187,4.54492 -5.995098,3.96738 -13.12798,13.06055 -15.683594,19.99219 -2.076416,5.63194 -2.06157,18.63163 0.04102,34.57422 l 1.714843,12.99609 10.126953,9.66993 c 7.497825,7.15972 11.364415,12.16512 14.892575,19.27929 11.07337,22.32837 23.77016,59.0986 32.7207,94.75391 5.98348,23.83565 10.47964,36.90808 14.92383,43.39648 1.59762,2.33247 11.66583,12.94091 22.37305,23.57422 17.84313,17.71999 34.3538,37.36386 37.84375,45.02344 2.13199,4.6792 5.22756,3.06412 9.01562,-4.70312 l 3.41992,-7.01563 3.17579,3.38086 c 2.32091,2.47053 3.42459,2.92143 4.10546,1.67969 1.81651,-3.31278 3.87696,-21.05049 3.87696,-33.37696 0,-22.82085 -5.02543,-32.10066 -21.76367,-40.18164 -5.26294,-2.54084 -11.85485,-6.97293 -14.64844,-9.84961 l -5.07813,-5.23046 10.41211,-0.74024 c 5.72692,-0.40672 12.08084,-1.38782 14.1211,-2.17969 3.6952,-1.43418 3.70202,-1.45635 1.5039,-5.70703 -2.04257,-3.94989 -9.50577,-11.65803 -27.52539,-28.43164 -5.66115,-5.26969 -9.00969,-10.30388 -15.98047,-24.02148 -17.66617,-34.76491 -29.04101,-66.07548 -29.04101,-79.94532 0,-7.17339 0.53297,-9.12765 3.41992,-12.55859 6.20891,-7.37889 11.3572,-7.62729 43.49023,-2.08789 21.98882,3.79065 39.48051,4.84324 54.42383,3.27344 l 14,-1.47071 11.46094,5.37305 c 14.67644,6.87995 25.52692,9.39336 40.6582,9.41797 l 12.11719,0.0195 3.57422,20.33203 c 5.61462,31.94876 4.59015,43.41821 -4.4707,50.11719 -2.14025,1.58235 -5.56672,5.72994 -7.61524,9.21484 -3.48281,5.92497 -3.71995,7.28726 -3.6582,21.00196 0.0528,11.73589 0.85215,17.73066 4,30 7.18982,28.02366 5.26348,54.21599 -6.96289,94.66601 -5.57264,18.43664 -12.43299,33.44996 -20.96875,45.89258 -7.70026,11.22476 -13.47315,22.67296 -19.91602,39.49026 -5.23822,13.6729 -9.74607,19.2247 -22.63281,27.8809 -3.52744,2.3695 -9.82744,7.937 -14,12.3711 -4.17256,4.4341 -10.94318,10.26 -15.04688,12.9472 -6.28344,4.1145 -7.30166,5.3199 -6.44531,7.6348 1.36547,3.6912 7.12328,8.0661 12.03321,9.1445 3.31238,0.7275 3.72314,1.2131 2.39257,2.8164 -3.1179,3.7568 0.91213,5.1211 16.53907,5.5977 16.9188,0.5161 36.60268,-2.7687 47.13086,-7.8653 14.55449,-7.0456 21.84132,-19.7399 22.84375,-39.7929 0.92234,-18.4512 1.77612,-19.3619 8.97851,-9.5781 5.12063,6.9557 9.35199,10.7949 11.90039,10.7949 0.41488,0 0.75391,-1.5956 0.75391,-3.5469 0,-1.9513 2.66396,-16.8013 5.91992,-33 3.25594,-16.1987 6.90951,-36.65317 8.11914,-45.45315 5.11946,-37.24386 14.5737,-85.64868 20.31836,-104.03321 1.41471,-4.52738 5.4458,-12.09235 9.23633,-17.33398 9.6296,-13.31608 10.77098,-16.05103 15.1875,-36.375 5.99309,-27.5791 19.60344,-77.43858 21.81836,-79.92969 0.16568,-0.18633 7.14837,1.42777 15.51758,3.58594 25.81063,6.65578 41.78721,8.60947 69.88281,8.54687 34.68613,-0.0773 53.72816,-3.24787 94.66797,-15.75976 20.11094,-6.14623 38.78348,-10.40832 53,-12.09766 l 7.66601,-0.91015 v 4.55859 c 0,7.30877 5.73046,16.8436 18.97071,31.56445 28.95986,32.19841 47.69531,66.50879 47.69531,87.34375 0,6.50144 -1.24452,8.99826 -22.71485,45.52539 -31.89063,54.25509 -48.25189,80.06835 -60.74023,95.83399 -5.93388,7.49112 -24.83394,28.03332 -42,45.65042 -17.16606,17.6171 -32.54285,34.4762 -34.17188,37.4629 l -2.96289,5.4297 10.6211,0.9394 10.62109,0.9414 -2.80469,3.9375 c -1.5425,2.1662 -2.48623,4.258 -2.09765,4.6465 3.36915,3.3692 27.85099,4.0807 42.46679,1.2344 25.779,-5.0203 34.45118,-12.381 34.45118,-29.2441 0,-3.9796 1.24548,-11.2693 2.76757,-16.1973 l 2.76758,-8.959 3.56446,3.3223 c 4.6512,4.3348 8.62105,6.3164 12.65625,6.3164 3.39162,0 4.85561,-2.7406 4.89257,-9.1641 0.0344,-5.9731 9.33834,-31.0099 17.31055,-46.584 13.25532,-25.89491 39.93527,-66.90719 73.45899,-112.91797 7.48034,-10.26665 14.4207,-20.9918 15.42382,-23.83398 1.26668,-3.58899 1.82422,-12.04213 1.82422,-27.66797 0,-12.37444 0.24285,-22.49805 0.53906,-22.49805 0.29623,0 4.34625,2.16146 9,4.80274 10.46841,5.94139 29.16306,14.35352 48.46094,21.80859 52.27315,20.19395 63.60513,37.28046 59.28711,89.38867 -3.7105,44.77706 -7.95948,58.88901 -28.76367,95.53517 -9.45987,16.6634 -15.18945,28.9368 -15.18945,32.5352 0,1.3231 -0.82323,3.2275 -1.82813,4.2324 -1.0049,1.0049 -2.89377,3.8969 -4.19922,6.4277 -1.30546,2.5308 -6.37786,10.6023 -11.27148,17.9356 -11.17677,16.7489 -15.43251,24.38 -14.25391,25.5586 0.50685,0.5068 6.01277,1.1889 12.23633,1.5156 10.85497,0.5697 11.31641,0.7225 11.31641,3.7598 0,2.9163 0.49847,3.1508 6.33203,2.9668 3.48331,-0.1099 8.13398,-0.4388 10.33398,-0.7305 13.56302,-1.7989 26.15681,-7.3671 34.91211,-15.4375 9.66977,-8.9133 11.72903,-14.0442 11.90039,-29.6328 0.25923,-23.5824 0.45666,-23.9978 8.70313,-18.3555 3.19964,2.1892 7.61836,4.9033 9.81836,6.0313 l 4,2.0507 -0.46289,-12.5195 c -0.25392,-6.8855 0.48312,-21.3726 1.63671,-32.1953 1.15362,-10.8228 2.73287,-30.17845 3.50977,-43.01175 1.61132,-26.61668 5.14211,-62.70587 10.11133,-103.33399 4.84357,-39.60096 5.4028,-51.12747 2.72656,-56.30273 -2.58277,-4.99453 -7.31941,-8.47157 -15.95508,-11.7168 -18.09114,-6.7985 -37.33956,-36.02442 -42.27734,-64.1914 -2.55815,-14.59262 -1.05482,-29.86372 5.75391,-58.45508 3.31805,-13.93331 6.42048,-28.67794 6.89453,-32.76563 1.35164,-11.65497 -1.40847,-29.6005 -8.2168,-53.42969 -0.51135,-1.78968 0.68972,-1.54434 6.49219,1.33204 6.24414,3.09531 8.67796,3.52041 19.78711,3.45117 10.86473,-0.0677 13.80409,-0.59822 20.66601,-3.72852 9.26269,-4.22546 20.68085,-14.83144 24.07813,-22.36523 1.28686,-2.85375 1.99268,-5.53467 1.56836,-5.95899 -0.42431,-0.42431 -3.24288,-1.32714 -6.26368,-2.00586 -16.05032,-3.60626 -28.63553,-14.32713 -36.63867,-31.21289 -16.84465,-35.54034 -17.00704,-35.82016 -25.95703,-44.77148 -10.35523,-10.3568 -19.59357,-14.54492 -32.08398,-14.54492 -7.74156,0 -7.97417,-0.11084 -15.10742,-7.24414 -8.24943,-8.24943 -13.13627,-10.1168 -34.92969,-13.33985 -23.98455,-3.5471 -50.09516,-5.11119 -72.66602,-4.35547 -22.80696,0.76363 -28.14758,1.7598 -58.48437,10.91016 -8.47454,2.55615 -14.13063,3.36328 -23.5625,3.36328 -28.11046,0 -98.86006,-7.45877 -108.41602,-11.42969 -2.67888,-1.11317 -7.87044,-4.90637 -11.53711,-8.42773 -13.53373,-12.99748 -18.67111,-15.14029 -52.75976,-22.02148 -19.75651,-3.9881 -33.5109,-7.75895 -44.24024,-12.125 -3.44883,-1.40344 -2.83169,-3.33008 1.06641,-3.33008 8.20725,0 13.86375,-6.28279 15.98828,-17.75782 l 0.94336,-5.09179 -4.56445,0.85547 c -6.89105,1.29277 -10.05484,-2.05088 -12.93555,-13.67188 -1.4632,-5.90266 -1.86657,-9.66797 -1.03516,-9.66797 0.74887,0 3.8955,-1.22553 6.99219,-2.72461 6.38067,-3.08882 9.87891,-8.92308 9.87891,-16.47656 0,-4.37019 -0.3352,-4.79883 -3.7461,-4.79883 -5.70478,0 -8.14677,-2.62014 -10.36718,-11.12304 -1.84767,-7.07549 -1.8312,-8.3596 0.20117,-14.47852 2.7691,-8.337 1.83606,-16.68274 -2.73828,-24.48828 -2.87337,-4.90304 -3.11081,-6.19656 -1.82032,-9.89844 0.81648,-2.34218 1.15019,-7.4941 0.74219,-11.44726 l -0.74219,-7.1875 11.59571,0.82226 c 10.91838,0.775 12.01988,0.60429 18.90039,-2.93164 l 7.30664,-3.75391 -6.10938,-1.77148 c -9.73118,-2.82012 -16.18781,-9.33869 -21.03515,-21.24023 -2.30266,-5.65368 -4.03646,-10.41898 -3.85352,-10.58789 0.18295,-0.16892 9.33205,5.24878 20.33203,12.03906 68.72082,42.42117 94.85971,51.74558 159.33399,56.83594 22.36837,1.76599 37.01786,1.06419 74,-3.54493 35.50488,-4.42498 62.0332,-5.4116 76,-2.82617 15.36912,2.84501 23.32316,6.24213 42.74804,18.25781 36.20507,22.39545 55.90707,25.93962 80.6875,14.51758 11.15611,-5.14218 14.04931,-7.85937 8.36719,-7.85937 -6.12958,0 -21.65226,-4.75141 -37.33203,-11.42774 -24.44204,-10.40724 -37.17901,-19.56435 -36.25,-26.0625 0.31703,-2.21755 4.08563,-5.59172 13.11133,-11.73828 15.95665,-10.86656 41.39499,-36.1773 48.37695,-48.13476 10.28652,-17.61692 13.00905,-37.3267 7.08399,-51.28907 l -2.25782,-5.32031 -6.46289,12.23438 c -12.06924,22.84966 -28.27987,41.11797 -52.46289,59.12109 -20.65128,15.37389 -30.67892,18.40347 -42.69922,12.90039 -8.86066,-4.05654 -11.85367,-8.22766 -12.63086,-17.59961 -0.74957,-9.03886 2.01945,-17.45382 9.64453,-29.30664 9.79327,-15.22317 16.65563,-39.50573 19.40625,-68.67383 2.71882,-28.830555 -2.34121,-53.49618 -13.77539,-67.146482 l -3.16406,-3.777344 -1.62109,14.44336 c -3.78182,33.729379 -12.60096,74.144506 -19.70508,90.298826 -2.90212,6.59923 -11.01125,20.92905 -13.21875,23.35938 -0.27346,0.30108 -5.15011,-1.59436 -10.83789,-4.21289 -5.68781,-2.61856 -13.19247,-5.98138 -16.67578,-7.47266 -9.3995,-4.02413 -8.87311,-6.53347 6.02344,-28.71289 13.77545,-20.51025 17.96797,-33.796 15.6914,-49.726563 -1.12787,-7.892355 -4.97295,-19.119629 -6.52539,-19.052735 -0.47038,0.02027 -2.85149,6.251942 -5.29101,13.847657 -8.31224,25.881041 -24.09236,48.012931 -39.56446,55.490231 -5.89523,2.84903 -8.51745,3.22682 -22.66601,3.25782 -15.15896,0.0332 -16.41838,-0.17511 -23.94141,-3.96485 -11.49078,-5.78849 -13.4249,-9.06444 -13.25195,-22.4414 0.11266,-8.71324 1.00978,-13.29339 4.48437,-22.892583 10.10017,-27.903458 16.77138,-37.815426 39.1543,-58.1875 8.8054,-8.014341 17.79517,-17.001791 19.97851,-19.970703 l 3.97071,-5.3984373 -6.53125,0.9492187 C 715.6158,11.199396 699.6821,17.489337 689.68524,23.973555 c -18.5266,12.016818 -30.47132,25.157369 -59.10156,65.023438 -35.38224,49.267867 -41.70863,55.683627 -62.21875,63.082027 -20.23973,7.30089 -44.92873,9.7152 -53.68554,5.25 -6.57145,-3.35085 -9.31927,-7.86636 -11.01563,-18.10351 -3.0247,-18.25341 2.88002,-44.330424 17.41602,-76.906251 3.72235,-8.342 6.60025,-15.335291 6.39453,-15.541016 -1.05721,-1.05721 -11.53806,2.995698 -16.4043,6.34375 -6.96742,4.793717 -18.72912,17.907503 -24.28711,27.078125 -5.70091,9.406469 -8.94533,19.075151 -14.33203,42.720702 -5.7443,25.21528 -7.32331,28.37952 -16.50781,33.07617 -3.94367,2.01667 -8.48466,3.66797 -10.08985,3.66797 -4.20978,0 -19.92616,-9.03416 -27.46875,-15.78906 -5.12831,-4.59278 -6.91273,-7.34786 -8.63867,-13.33399 -1.19641,-4.14957 -4.4637,-12.11341 -7.25976,-17.69726 -8.78452,-17.54297 -11.21902,-26.726114 -11.09375,-41.847657 0.0891,-10.753151 0.82701,-15.525836 3.80859,-24.666016 3.88837,-11.920064 9.38523,-23.705363 15.05273,-32.269531 1.86268,-2.814698 2.99936,-5.5064875 2.52539,-5.9804687 -0.47397,-0.473981 -3.48888,-0.8613281 -6.69921,-0.8613281 -16.53492,0 -37.98369,25.1205108 -44.24219,51.8144528 -1.60276,6.836107 -2.02253,13.355603 -1.58399,24.63086 0.50679,13.029884 1.31533,17.516168 5.38672,29.863278 l 4.79102,14.5293 -5.37695,-5.19727 c -7.77948,-7.51644 -24.53636,-30.081368 -29.20313,-39.326168 -2.20388,-4.365856 -4.99239,-11.671576 -6.19727,-16.236328 -2.94082,-11.141655 -2.81234,-36.889754 0.25,-50.060547 1.2482,-5.368341 2.06248,-9.9488386 1.8086,-10.177734 z M 682.58368,182.99699 c 35.4983,0 52.08283,3.03955 74.57227,13.66602 l 7.23633,3.41992 -8.57032,7.76367 c -12.08964,10.95031 -29.56006,23.23035 -40.60547,28.54297 -20.69054,9.95175 -61.49716,13.89584 -81.69921,7.89649 -3.5725,-1.06092 -7.56982,-3.11556 -8.88282,-4.56641 -3.50998,-3.87849 -2.22473,-14.57697 3.08399,-25.66602 5.83068,-12.17933 18.47034,-28.87843 22.77734,-30.09179 1.88134,-0.53001 16.32126,-0.96485 32.08789,-0.96485 z m -79.35156,6.41992 c 0.14512,0.005 0.23187,0.017 0.25391,0.0391 0.17624,0.17626 -6.40336,7.33338 -14.62305,15.90429 -19.61281,20.45079 -27.70498,24.11205 -42.07227,19.04297 -3.00373,-1.05979 -12.38393,-6.90979 -20.8457,-13 -12.0168,-8.6489 -14.87098,-11.2759 -13.03906,-12.0039 1.28998,-0.51263 17.94508,-2.49416 37.01172,-4.40235 19.06665,-1.90817 38.84689,-4.00807 43.95703,-4.66601 4.47135,-0.57571 8.3416,-0.9477 9.35742,-0.91407 z"
         transform="translate(-81.472354,-7.0321492)" />
    </g>
    <g
       id="layer2"
       inkscape:label="Hooves"
       style="fill:#28170b">
      <path
         style="fill:#28170b;stroke-width:1.33333"
         d="m 593.68306,1094.6266 c -1.06153,-0.6752 1.79778,-5.4864 8.85854,-14.9059 9.72036,-12.9675 11.5917,-17.3897 7.35886,-17.3897 -0.95226,0 -5.23808,4.7803 -9.52401,10.6228 -7.14819,9.7442 -8.17851,10.6248 -12.45927,10.6484 -5.97526,0.033 -10.66666,-1.2264 -10.66666,-2.8633 0,-0.7046 6.68685,-8.1242 14.85968,-16.4881 13.1832,-13.4914 15.25157,-15.1133 18.33333,-14.3763 5.01651,1.1998 11.30339,4.5273 12.53991,6.6372 0.58644,1.0006 1.96034,1.8193 3.05312,1.8193 7.56336,0 24.54729,15.9016 24.54729,22.983 0,4.4293 -13.13996,10.2916 -29.10781,12.9862 -8.19608,1.383 -25.80646,1.5899 -27.79298,0.3264 z"
         transform="translate(-81.472354,-7.0321492)"
         id="path1945" />
      <path
         style="fill:#28170b;stroke-width:1.33333"
         d="m 241.25051,1110.5228 c 0,-3.942 20.18953,-24.1918 24.11973,-24.1918 0.66748,0 1.2136,-1.2 1.2136,-2.6666 0,-1.5342 -0.88889,-2.6667 -2.09309,-2.6667 -3.4056,0 -13.16666,7.4088 -20.28834,15.3991 -6.2972,7.0653 -6.8827,7.4014 -11.41396,6.5513 -7.01169,-1.3154 -8.42153,-3.7347 -3.8946,-6.6832 2.0295,-1.3218 8.78999,-7.2723 15.02332,-13.2233 6.23334,-5.951 13.43334,-12.242 16,-13.9798 2.56667,-1.7379 6.29223,-4.6521 8.27902,-6.476 l 3.61236,-3.3163 6.22938,4.5308 c 17.13535,12.4629 25.5426,23.5143 24.3279,31.9792 -0.86303,6.0142 -13.41882,11.816 -31.16722,14.4017 -10.62818,1.5484 -29.9481,1.7688 -29.9481,0.3416 z"
         transform="translate(-81.472354,-7.0321492)"
         id="path1943" />
      <path
         style="fill:#28170b;stroke-width:1.33333"
         d="m 865.93088,1108.6644 c 0.49073,-2.3834 3.0018,-9.1334 5.58015,-15 5.3262,-12.1191 5.98088,-15.7319 2.96216,-16.3466 -2.10619,-0.429 -8.05708,10.7049 -12.3162,23.043 l -1.8308,5.3036 -8.20451,0.3969 c -4.51248,0.2183 -8.20451,-0.033 -8.20451,-0.5577 0,-0.525 4.09824,-7.0037 9.10722,-14.3969 5.00896,-7.3933 10.81573,-16.4423 12.90394,-20.109 2.08822,-3.6667 3.88794,-6.8146 3.99938,-6.9955 0.50356,-0.8171 14.58973,4.072 16.10892,5.5912 0.93588,0.9358 4.06665,2.0797 6.95729,2.542 6.27496,1.0034 17.06508,8.0904 20.03615,13.1598 1.99417,3.4026 1.95574,3.8636 -0.61111,7.3333 -7.40304,10.007 -21.02256,16.869 -37.83512,19.0627 -4.03333,0.5263 -7.831,1.0355 -8.43928,1.1317 -0.60827,0.096 -0.70443,-1.7752 -0.21368,-4.1585 z"
         transform="translate(-81.472354,-7.0321492)"
         id="path1941" />
      <path
         style="fill:#28170b;stroke-width:1.33333"
         d="m 212.21612,944.30919 c -4.41561,-5.8787 -13.34465,-16.25333 -19.84229,-23.05472 -10.81059,-11.31594 -12.74583,-14.9234 -8.00576,-14.9234 0.68798,0 3.89722,-2.4393 7.13162,-5.42066 5.98399,-5.51586 20.46242,-13.24304 24.81703,-13.24495 7.79679,-0.004 16.09411,8.88556 18.34421,19.65228 1.47312,7.04881 0.98519,35.72884 -0.63542,37.34944 -1.22443,1.22444 -3.68584,-1.45944 -9.67271,-10.54692 -3.38347,-5.13577 -9.10933,-12.3742 -12.72415,-16.0854 -6.1325,-6.29601 -6.72104,-6.599 -8.79316,-4.52687 -2.07212,2.07212 -1.94144,2.48179 1.95242,6.12092 5.26796,4.92334 12.45881,13.88383 16.35476,20.37956 2.39941,4.00059 2.82166,6.09752 2.0945,10.40155 -0.50093,2.96493 -1.3792,5.21011 -1.9517,4.98925 -0.57252,-0.22084 -4.65372,-5.21138 -9.06935,-11.09008 z"
         transform="translate(-81.472354,-7.0321492)"
         id="path1965" />
    </g>
    <g
       id="layer4"
       inkscape:label="Body"
       style="fill:#784421">
      <path
         style="fill:#784421;stroke-width:1.33333"
         d="m 160.05876,886.39487 c -2.44939,-4.59552 -6.93047,-18.68098 -11.48301,-36.09474 -11.53339,-44.11598 -25.0254,-82.44762 -35.80415,-101.72183 -2.74225,-4.9036 -8.51209,-11.97913 -13.859152,-16.9954 l -9.16093,-8.59423 -1.79932,-17.64736 c -2.06563,-20.25934 -1.31969,-24.70385 5.68817,-33.89177 6.922592,-9.07611 11.106322,-10.82197 26.756952,-11.16563 12.22976,-0.26853 15.49191,-0.94396 34.18652,-7.07836 21.24159,-6.97016 41.03761,-12.18198 46.33333,-12.19846 2.61267,-0.008 3,0.67924 3,5.32398 v 5.33334 h 6.46662 c 5.07216,0 7.65982,-0.86436 12,-4.00836 l 5.53338,-4.00836 v 3.10417 c 0,4.87481 -3.89781,15.07344 -6.74608,17.65108 -1.42298,1.28779 -2.58725,2.93059 -2.58725,3.65067 0,2.15202 16.76168,0.1723 22.47528,-2.65456 l 5.21047,-2.57794 0.58552,10.11471 c 0.66614,11.50727 4.70566,21.85939 11.58888,29.69893 l 4.25718,4.84867 -6.18125,0.92693 c -10.72333,1.60807 -40.46919,-0.31953 -62.60275,-4.05678 -29.1855,-4.92799 -35.386,-3.88847 -42.93294,7.19778 -6.60376,9.70074 -4.94754,23.38884 6.33484,52.35496 8.67224,22.26488 24.98044,55.76799 31.16352,64.02139 2.5807,3.44481 7.89432,8.62887 11.80804,11.52011 3.91373,2.89122 10.01345,8.47274 13.55494,12.40336 l 6.4391,7.14657 -7.09856,1.22884 c -8.58279,1.48579 -22.95947,-0.66311 -30.63547,-4.57911 -3.16032,-1.61228 -6.43288,-4.78306 -8.26585,-8.00878 -3.34435,-5.88552 -7.27696,-6.67686 -6.67354,-1.34288 0.60768,5.3716 6.61284,11.7114 14.82798,15.65429 4.31944,2.07313 11.9959,7.69108 17.13997,12.54373 l 9.31675,8.78895 -7.18614,3.52441 c -3.95237,1.93843 -9.7226,5.83675 -12.82272,8.66294 -3.10012,2.82617 -7.43658,6.03021 -9.63658,7.12008 -3.91276,1.93834 -4.12187,1.86553 -9.5874,-3.3386 -3.07307,-2.9261 -7.39503,-8.71162 -9.60435,-12.85674 z"
         transform="translate(-81.472354,-7.0321492)"
         id="path1967" />
      <path
         style="fill:#784421;stroke-width:1.33333"
         d="m 645.60116,1063.2103 c -4.70595,-4.8877 -13.24807,-10.2126 -16.38296,-10.2126 -0.80954,0 -4.75123,-1.5 -8.7593,-3.3333 -4.00808,-1.8334 -7.93297,-3.3334 -8.72197,-3.3334 -0.78901,0 4.72435,-6.45 12.25192,-14.3333 31.05088,-32.51833 38.2252,-42.84152 87.62639,-126.08619 l 22.30194,-37.58044 -0.0396,-12.66666 c -0.0353,-11.29044 -0.53356,-13.87952 -4.58614,-23.82964 -8.43523,-20.7106 -23.59131,-43.72072 -42.29196,-64.2081 -5.03928,-5.52076 -10.75942,-12.13162 -12.71142,-14.69081 -4.16124,-5.45567 -7.5573,-16.61837 -5.63936,-18.53632 1.62856,-1.62855 37.20774,-5.4018 50.93524,-5.4018 h 10.40927 l 2.42491,9.41321 c 3.20781,12.45243 9.83389,25.34022 18.3334,35.65867 6.18092,7.50365 22.93285,22.59804 33.83515,30.48727 l 3.99717,2.89246 0.46213,22.48672 c 0.28288,13.76426 -0.11026,24.61262 -1.01364,27.96732 -0.81168,3.01434 -4.97185,10.1937 -9.24484,15.95415 -13.75193,18.53911 -42.77009,60.30535 -53.5152,77.02517 -24.57041,38.23256 -36.2762,61.74429 -42.16367,84.68799 -1.77445,6.9151 -3.45544,12.8021 -3.7355,13.0822 -0.28008,0.2801 -2.6356,-1.3578 -5.23451,-3.6396 -8.31364,-7.2995 -9.30836,-16.2571 -3.20123,-28.8274 2.15432,-4.4343 2.47054,-6.2308 1.30232,-7.399 -4.16925,-4.1693 -11.26656,10.9773 -10.92474,23.3147 0.16601,5.9924 -0.71024,10.7666 -3.22344,17.5628 -2.08946,5.6503 -3.47926,12.2271 -3.52195,16.6666 -0.0655,6.8047 -0.21353,7.1411 -2.05429,4.6667 -1.09107,-1.4667 -4.20243,-4.971 -6.91412,-7.7874 z"
         transform="translate(-81.472354,-7.0321492)"
         id="path1963" />
      <path
         style="fill:#784421;stroke-width:1.33333"
         d="m 296.60021,1070.9439 c -3.04218,-3.0422 -9.21646,-7.4955 -13.72061,-9.8961 l -8.18935,-4.3649 2.45659,-4.8426 c 1.35112,-2.6634 4.91696,-11.1426 7.92409,-18.8426 3.44275,-8.8155 9.41184,-20.1109 16.11852,-30.5015 13.90672,-21.54543 22.72499,-44.5383 29.45996,-76.81421 5.77992,-27.69909 5.58306,-43.60694 -0.86653,-70.01758 -2.63735,-10.79976 -3.76239,-18.88135 -3.80509,-27.33334 -0.0541,-10.70638 0.32877,-12.66234 3.55141,-18.14418 1.98661,-3.3793 5.06803,-7.09819 6.84759,-8.26422 1.77957,-1.16601 4.64348,-5.00113 6.36425,-8.52248 5.28377,-10.81262 4.57924,-19.62842 -6.15915,-77.06912 -3.58222,-19.16165 -4.68774,-30.00222 -3.81602,-37.41925 l 0.85706,-7.29231 4.58435,5.35578 c 4.51495,5.27469 7.45087,6.59896 9.01589,4.06666 0.4382,-0.709 -1.92564,-4.63142 -5.25296,-8.71648 -11.82212,-14.51438 -15.38637,-25.33005 -15.38637,-46.68978 0,-23.20932 6.17771,-42.94874 16.95768,-54.18426 4.47075,-4.65968 4.92005,-7.78702 1.11879,-7.78702 -2.6231,0 -10.84116,9.63316 -14.6788,17.20637 -6.58575,12.99636 -9.24956,25.85845 -9.277,44.79363 -0.0227,15.65108 0.3318,18.30386 3.65245,27.33333 2.02267,5.5 3.69329,10.6 3.71251,11.33333 0.0192,0.73334 -0.37043,7.33334 -0.86586,14.66667 -0.82532,12.21611 1.07504,30.60313 4.25774,41.19603 0.7226,2.40501 0.0477,2.49365 -13.72544,1.80304 -27.5344,-1.3806 -51.13748,-13.47042 -60.30631,-30.8897 -6.86092,-13.03462 -6.91811,-29.69777 -0.13863,-40.3879 4.78591,-7.5466 6.13783,-12.31707 7.34259,-25.90947 l 0.90301,-10.188 7.67367,-1.50971 c 16.73545,-3.29249 29.01264,-17.12538 30.38616,-34.23653 0.67523,-8.41185 0.82571,-8.71208 4.76121,-9.49919 4.92443,-0.98488 15.55956,-11.24449 15.55956,-15.01014 0,-2.07516 0.8726,-2.70176 3.76248,-2.70176 5.98963,0 15.28251,-3.71363 20.9189,-8.3596 4.68644,-3.86298 5.92714,-4.24371 12.59198,-3.86411 5.99844,0.34164 8.26776,-0.16952 12.02824,-2.70933 5.77123,-3.89787 10.42272,-10.67383 12.40087,-18.0647 1.00195,-3.74353 2.43983,-5.9437 4.24013,-6.48808 4.94294,-1.49462 11.37247,-7.25126 14.12504,-12.64677 3.88855,-7.62219 4.60882,-19.55548 2.16578,-35.88213 -1.15099,-7.69191 -2.49586,-17.88528 -2.9886,-22.65195 l -0.89592,-8.66667 8.49222,7.9443 c 4.67072,4.36934 9.54222,9.75998 10.82555,11.97918 3.08297,5.33123 2.91877,14.65708 -0.38631,21.94172 -1.4636,3.22586 -2.46798,6.05828 -2.23197,6.2943 0.236,0.236 3.69667,-0.60124 7.69036,-1.86054 7.53287,-2.37528 19.92792,-12.8095 19.92792,-16.77544 0,-1.06524 2.67967,-3.50718 5.95481,-5.42654 8.93642,-5.23708 13.11636,-11.49174 13.7762,-20.61395 0.30195,-4.17428 -0.0656,-9.81561 -0.81686,-12.53631 -1.55252,-5.62276 -1.37828,-5.69909 6.58488,-2.88478 3.20886,1.13405 17.32488,4.36286 31.3689,7.17512 14.5144,2.90645 28.68254,6.55437 32.82856,8.45249 4.01168,1.8366 11.5151,7.21301 16.67427,11.94757 7.60555,6.97962 10.85436,9.00464 17.17143,10.70316 16.08355,4.32451 59.3349,8.82759 94.45782,9.8344 l 26.66667,0.76442 14.81438,-4.71059 c 27.25743,-8.66717 32.73127,-9.44853 65.18562,-9.30496 21.54419,0.0953 34.82112,0.86479 49.99999,2.89783 34.98572,4.68594 39.55121,7.08005 49.97792,26.20812 6.60298,12.11333 8.1055,13.75374 10.45012,11.40913 1.1498,-1.1498 0.62496,-3.13729 -2.11618,-8.01367 -2.00486,-3.56654 -3.6452,-6.92954 -3.6452,-7.47332 0,-2.14628 15.81294,0.57531 22.2269,3.82551 7.23485,3.66619 16.83749,13.44023 22.1699,22.56563 1.81818,3.11148 6.09472,12.31432 9.50343,20.45078 9.42596,22.4994 21.44611,35.54971 38.23601,41.51296 3.59174,1.27567 6.53043,2.8135 6.53043,3.41739 0,0.60389 -2.64645,3.89897 -5.88101,7.3224 l -5.88102,6.22441 -8.40796,-3.96869 c -10.66645,-5.03473 -23.14482,-17.23408 -28.94934,-28.30203 -4.44831,-8.48192 -8.214,-10.89101 -8.214,-5.25489 0,4.29601 8.31585,17.72012 15.55747,25.11411 3.33572,3.4059 9.58205,8.2059 13.88075,10.66666 4.29869,2.46076 7.83365,4.87759 7.85546,5.37072 0.0868,1.96396 -10.47613,4.36307 -19.29368,4.38207 -12.34346,0.0265 -21.8367,-4.36959 -33.6267,-15.572 -4.84689,-4.60533 -8.46201,-7.47333 -8.03358,-6.37333 0.42841,1.1 2.88721,6.8 5.46401,12.66666 8.28093,18.85348 11.73288,32.87931 12.46977,50.66667 0.64823,15.64707 0.52207,16.57352 -5.71965,42 -10.82925,44.11441 -9.80861,64.70244 4.66185,94.03755 9.21479,18.68058 19.3609,29.58602 34.04758,36.59568 6.03181,2.87886 11.73887,6.16444 12.68235,7.30126 3.21118,3.86923 2.97991,13.36732 -1.13785,46.73218 -5.76321,46.69744 -9.08152,80.36161 -11.43422,116 -1.11347,16.86666 -2.60951,35.16659 -3.32453,40.66659 -0.71502,5.5 -1.31856,15.25 -1.3412,21.6667 -0.0226,6.4167 -0.39184,11.6667 -0.82044,11.6667 -0.4286,0 -4.33178,-2.791 -8.67374,-6.2023 -9.55733,-7.5087 -12.02333,-13.3431 -9.40195,-22.2447 2.43306,-8.2621 2.4135,-9.4044 -0.1702,-9.9379 -6.38805,-1.3191 -8.4099,20.4824 -2.64973,28.5719 2.72645,3.8289 2.76304,4.2826 0.79917,9.9128 -1.55252,4.4508 -1.84441,8.6023 -1.18829,16.9002 0.91084,11.5191 0.21601,12.9212 -4.06105,8.1951 -3.77847,-4.1751 -12.27276,-8.7322 -20.5416,-11.0201 -7.2942,-2.0183 -20.25972,-6.2835 -21.11458,-6.946 -0.88369,-0.6848 10.57467,-23.8001 19.74551,-39.8332 11.87376,-20.75855 14.16824,-26.0179 18.08237,-41.44786 5.25495,-20.7156 7.77183,-41.95288 7.81568,-65.94793 0.0356,-19.49054 -0.30209,-22.96252 -2.96058,-30.43828 -3.88763,-10.93212 -7.70036,-16.82371 -15.73864,-24.32002 -8.99743,-8.39078 -19.81567,-14.11749 -47.82976,-25.31901 -13.2,-5.27807 -28.8,-11.98552 -34.66667,-14.90547 -22.12309,-11.01105 -47.08116,-29.9572 -61.74775,-46.8739 -8.40884,-9.6989 -14.04289,-22.4696 -20.26579,-45.9364 -2.98401,-11.25287 -7.88484,-26.85287 -10.89073,-34.66667 -8.75676,-22.76324 -8.53372,-39.09843 0.79697,-58.36653 2.44334,-5.04555 6.31702,-10.93598 8.6082,-13.08984 2.29118,-2.15387 4.16578,-4.70387 4.16578,-5.66667 0,-3.53687 -5.15876,-1.60031 -9.99391,3.75161 -10.97521,12.14826 -17.9142,35.92004 -15.5138,53.14764 0.66545,4.77595 3.31487,14.08354 5.88757,20.68354 5.01258,12.8592 10.77218,31.2924 10.01435,32.05024 -0.2538,0.25378 -9.44632,1.12625 -20.42784,1.9388 -10.98151,0.81256 -26.26637,2.30465 -33.96637,3.31577 -7.7,1.01113 -17.6,2.22619 -22,2.70015 -12.37912,1.33344 -28.99524,5.20588 -50.88678,11.85932 -40.13007,12.19662 -60.69065,15.61004 -93.90963,15.59062 -21.73622,-0.0133 -41.10932,-2.04428 -59.87027,-6.27832 -10.2714,-2.31809 -21.33333,-5.79468 -21.33333,-6.70473 0,-1.90865 3.74074,-6.89769 12.10853,-16.14921 16.76776,-18.53863 23.64132,-38.72927 20.13857,-59.15574 -2.82105,-16.45109 -14.23394,-32.99366 -18.26397,-26.47294 -0.46251,0.74834 0.73076,3.22846 2.65171,5.51137 8.51102,10.11479 11.7602,23.14188 9.82516,39.39261 -1.48662,12.48478 -8.08444,25.23248 -19.71507,38.09168 -5.15177,5.69596 -10.25467,12.0731 -11.33975,14.17143 -6.3467,12.27317 -16.32938,45.89921 -24.67314,83.11 -5.6896,25.37396 -6.72888,28.10208 -15.37604,40.36228 -3.10332,4.4 -6.58078,9.82893 -7.72766,12.06429 -5.02268,9.7896 -15.97477,62.32192 -22.91972,109.93571 -2.95936,20.28896 -11.61037,66.20566 -13.56529,71.99996 -0.53125,1.5746 -1.25072,1.2937 -3.3824,-1.3206 -9.17356,-11.2504 -12.07927,-26.2913 -7.17864,-37.159 2.00761,-4.4521 2.18887,-5.9435 0.87884,-7.2313 -1.3004,-1.2784 -2.18884,-0.9636 -4.18923,1.4843 -4.89948,5.9954 -6.55489,17.5536 -3.88889,27.1526 1.1446,4.1212 0.92553,5.7518 -1.34077,9.9803 -1.80346,3.3648 -2.70891,7.5626 -2.70891,12.5586 0,8.278 -1.64773,18.3723 -4.00497,24.5351 l -1.52998,4 -3.45872,-7.2613 c -1.90229,-3.9937 -5.94777,-9.7503 -8.98996,-12.7925 z"
         transform="translate(-81.472354,-7.0321492)"
         id="path1947" />
      <path
         style="fill:#784421;stroke-width:1.33333"
         d="m 350.67756,313.37605 -0.0937,-5.62171 -4.78746,2.82467 c -2.6331,1.55357 -6.0831,4.8259 -7.66666,7.27186 -1.58358,2.44596 -3.3138,4.45462 -3.84498,4.4637 -1.24109,0.0212 -4.40457,-6.25156 -5.53918,-10.9835 -0.48356,-2.01666 -1.42504,-3.66666 -2.09219,-3.66666 -1.70115,0 -10.19275,8.24717 -10.9828,10.66666 -0.95744,2.93211 -4.58885,-0.39077 -5.50876,-5.04072 -0.59509,-3.0081 0.20311,-4.4267 4.6844,-8.32542 4.56767,-3.97386 5.10228,-4.948 3.46239,-6.309 -1.56034,-1.29496 -2.83038,-0.94302 -6.49872,1.80086 -4.03083,3.01503 -5.58696,3.35582 -13.42363,2.93975 -10.71345,-0.56881 -24.93768,-7.18467 -49.68692,-23.10999 -26.85851,-17.28256 -40.31125,-23.17274 -53.11549,-23.25621 -3.54107,-0.0231 -5,-0.61617 -5,-2.0326 0,-2.69625 11.92042,-2.70453 20.78809,-0.0144 7.27307,2.20636 17.54541,2.60668 20.4062,0.79524 1.07511,-0.68076 1.49615,-2.12901 0.99707,-3.42961 -0.68146,-1.77584 -1.9192,-2.08267 -5.86096,-1.45292 -2.86942,0.45842 -8.11946,-0.0528 -12.3304,-1.20082 -4.03334,-1.09953 -10.33334,-2.05238 -14,-2.11744 -9.24599,-0.16406 -16.6011,-2.6455 -19.51234,-6.583 -2.79353,-3.77828 -5.57273,-16.57826 -4.40109,-20.2698 0.42748,-1.34688 3.71073,-3.93538 7.29612,-5.75224 3.58537,-1.81684 8.70753,-5.22502 11.38257,-7.57374 l 4.8637,-4.27039 14.85218,0.32469 c 23.6208,0.51639 56.7576,-7.18017 68.65763,-15.94684 5.38981,-3.97065 11.53507,-6.10137 36.19456,-12.54949 4.03333,-1.05466 11.83333,-1.92334 17.33333,-1.93041 14.2279,-0.0183 32.02782,1.51416 31.29831,2.69453 -0.34031,0.55063 0.17861,2.89751 1.15316,5.21528 1.71689,4.08324 13.03913,13.39469 16.28728,13.39469 0.88147,0 2.42585,1.20984 3.43197,2.68852 l 1.8293,2.68854 7.3333,-2.8345 c 5.98671,-2.31398 9.16964,-2.70602 17.33333,-2.13496 11.54851,0.80783 17.24787,2.94132 29.45012,11.0243 7.8205,5.18042 9.23142,6.80957 12.86932,14.85988 2.24723,4.97285 4.89468,11.44156 5.88322,14.37489 1.01224,3.00364 4.81708,8.39105 8.71038,12.33333 l 6.91306,7 h -5.19999 c -6.96785,0 -12.20328,-4.74821 -20.34169,-18.4487 -7.83326,-13.1868 -15.4981,-20.18599 -25.58918,-23.36692 -4.24969,-1.3396 -9.8019,-4.39571 -12.63344,-6.95383 -5.7083,-5.15712 -8.0618,-5.74131 -8.0618,-2.00111 0,3.95714 10.13266,11.70878 19.28766,14.75536 9.61816,3.20072 14.01745,7.32554 22.05809,20.68187 3.09031,5.13333 6.54473,10.38333 7.67648,11.66667 2.64472,2.99892 1.15413,2.93848 -8.37361,-0.33955 -12.07611,-4.15479 -18.42086,-8.5228 -28.24128,-19.4426 -8.97596,-9.98079 -16.43292,-15.21785 -21.66842,-15.21785 -6.2377,0 -14.60042,3.24986 -16.23841,6.31046 -1.40267,2.62092 -1.27109,4.34178 0.79723,10.42666 2.4752,7.28193 2.47488,7.29008 -0.4103,10.36121 -3.82453,4.07103 -3.6415,8.52316 0.70402,17.12545 2.80969,5.56199 3.58849,8.99604 3.57789,15.77622 -0.0177,11.30706 -2.21459,15.25458 -14.17288,25.46657 -10.20461,8.7144 -15.45759,14.39785 -18.33453,19.83703 -1.66206,3.14228 -1.7977,3.17482 -2.77762,0.66666 -0.56662,-1.45032 -1.0724,-5.16669 -1.12393,-8.25862 z"
         transform="translate(-81.472354,-7.0321492)"
         id="path1977" />
    </g>
    <g
       id="layer3"
       inkscape:label="Lines">
      <path
         style="fill:#000000;stroke-width:1.33333"
         d="m 688.67482,623.99774 c 4.02344,-18.24804 13.12631,-37.36632 25.85344,-54.29871 7.51547,-9.99869 8.73976,-14.27242 3.51416,-12.26718 -3.74529,1.43721 -18.21776,22.51709 -24.81481,36.14402 -6.59161,13.61572 -11.38063,28.91179 -10.09823,32.25366 1.2125,3.1597 4.6988,2.00809 5.54544,-1.83179 z"
         transform="translate(-81.472354,-7.0321492)"
         id="path1961" />
      <path
         style="fill:#000000;stroke-width:1.33333"
         d="m 473.66717,632.13663 c 2.0945,-2.09449 0.7468,-12.2895 -2.48073,-18.76634 -5.35533,-10.74674 -22.62377,-24.59551 -28.0652,-22.50744 -3.51149,1.34748 -1.87755,4.26686 3.98121,7.11328 12.47559,6.0611 18.84214,14.03885 21.49936,26.94021 1.42275,6.90777 3.05344,9.23221 5.06536,7.22029 z"
         transform="translate(-81.472354,-7.0321492)"
         id="path1959" />
      <path
         style="fill:#000000;stroke-width:1.33333"
         d="m 467.34652,653.89499 c 1.13927,-2.96886 -1.73615,-16.64528 -4.85351,-23.08486 -5.74002,-11.85731 -26.57584,-24.38951 -26.57584,-15.98467 0,1.05128 1.65,2.50359 3.66667,3.22735 11.80084,4.2352 20.02309,15.47041 21.52529,29.413 0.61328,5.69201 1.37143,7.60769 3.1454,7.94769 1.28556,0.2464 2.67695,-0.43693 3.09199,-1.51851 z"
         transform="translate(-81.472354,-7.0321492)"
         id="path1957" />
      <path
         style="fill:#000000;stroke-width:1.33333"
         d="m 701.64886,654.82161 c 0.51424,-0.51424 0.93499,-4.77919 0.93499,-9.47767 0,-13.85675 7.20492,-32.51024 20.46456,-52.98265 4.75771,-7.34572 5.7006,-9.6946 4.48135,-11.1637 -1.27586,-1.53732 -2.24506,-1.03794 -5.57836,2.87427 -6.47158,7.59549 -16.71152,26.70307 -21.05622,39.29053 -4.72481,13.68874 -5.95665,31.22367 -2.24632,31.97567 1.13576,0.2302 2.48576,-0.003 3,-0.51645 z"
         transform="translate(-81.472354,-7.0321492)"
         id="path1955" />
      <path
         style="fill:#000000;stroke-width:1.33333"
         d="m 933.34829,845.43945 c 1.84287,-4.80607 -0.27724,-16.25995 -4.17797,-22.57146 -3.20016,-5.17797 -8.51972,-9.30072 -13.6678,-10.59281 -5.8402,-1.46579 -4.63493,3.4448 1.73881,7.08452 6.70671,3.82985 9.60426,9.36409 10.57528,20.19851 0.84346,9.41101 3.21243,11.92969 5.53168,5.88124 z"
         transform="translate(-81.472354,-7.0321492)"
         id="path1953" />
      <path
         style="fill:#000000;stroke-width:1.33333"
         d="m 350.15859,851.55633 c 1.04257,-1.04258 1.07836,-2.90344 0.12213,-6.35 -1.90045,-6.84992 -0.45844,-22.14144 2.94141,-31.19135 1.58055,-4.20717 2.49811,-8.25717 2.03902,-9 -3.81999,-6.18088 -10.02784,8.50912 -10.98004,25.98276 -0.89147,16.35919 1.54709,24.88896 5.87746,20.55859 z"
         transform="translate(-81.472354,-7.0321492)"
         id="path1951" />
      <path
         style="fill:#000000;stroke-width:1.33333"
         d="m 946.3765,856.5809 c 2.86168,-3.44812 4.50585,-16.55493 2.9732,-23.70144 -2.2103,-10.30629 -9.72143,-20.17531 -13.55285,-17.80736 -2.03937,1.2604 -1.35989,4.04813 1.63768,6.71899 1.56788,1.397 3.66788,4.47072 4.66666,6.83049 2.15207,5.08456 2.3855,17.37128 0.42786,22.52028 -1.05933,2.78623 -0.95324,4.08595 0.44787,5.48705 1.5591,1.55911 2.0718,1.55187 3.39958,-0.048 z"
         transform="translate(-81.472354,-7.0321492)"
         id="path1949" />
      <path
         style="fill:#000000;stroke-width:1.33333"
         d="m 317.25051,209.66441 c 0,-3.75374 1.50633,-4.07428 8.13437,-1.73095 l 4.53229,1.60239 -5.33333,1.62848 c -7.34609,2.24305 -7.33333,2.24566 -7.33333,-1.49992 z"
         transform="translate(-81.472354,-7.0321492)"
         id="path1983" />
      <path
         style="fill:#000000;stroke-width:1.33333"
         d="m 309.99711,222.86957 c 12.89821,-6.27899 23.91082,-8.14046 31.9514,-5.40075 5.4498,1.85693 6.1804,1.86192 6.87685,0.0471 0.92956,-2.42243 0.0853,-3.31686 -6.90819,-7.31851 -11.92724,-6.82484 -17.30026,-9.19967 -20.81394,-9.19967 -2.03244,0 -4.076,-0.61591 -4.54124,-1.36869 -0.46524,-0.75279 -1.85066,-1.20279 -3.0787,-1 -1.43922,0.23765 -2.38262,-0.68543 -2.65438,-2.59723 -0.5115,-3.59831 5.86793,-7.98111 13.4216,-9.22091 3.7051,-0.60813 5,-1.46714 5,-3.31692 0,-5.48253 -17.60487,-0.84986 -21.75723,5.72536 -3.75539,5.94662 -3.83812,8.59574 -0.3962,12.68623 1.79479,2.13297 3.64367,5.95129 4.10863,8.48515 0.8254,4.49809 0.67042,4.69756 -6.55491,8.43713 -4.99025,2.58277 -7.40029,4.64535 -7.40029,6.33333 0,3.37882 1.74166,3.0657 12.7466,-2.29162 z"
         transform="translate(-81.472354,-7.0321492)"
         id="path1981" />
      <path
         style="fill:#000000;stroke-width:1.33333"
         d="m 203.89503,237.94974 c 8.35421,-4.22693 5.49262,-16.31652 -5.17963,-21.88283 -4.67787,-2.43981 -6.26104,-2.73496 -7.80356,-1.45477 -1.65447,1.37308 -1.48017,1.94431 1.20177,3.93857 9.29651,6.9128 10.47023,8.17003 10.47023,11.21511 0,2.98427 -0.50481,3.23192 -6.58797,3.23192 -7.25308,0 -9.83451,2.08523 -6.02756,4.86893 3.07218,2.24644 9.57434,2.28523 13.92672,0.0831 z"
         transform="translate(-81.472354,-7.0321492)"
         id="path1979" />
    </g>
    <g
       id="layer5"
       inkscape:label="Mane">
      <path
         style="fill:#a05a2c;stroke-width:1.33333"
         d="m 387.39316,504.22202 c -0.44513,-1.15997 -0.80932,-3.44697 -0.80932,-5.08221 0,-1.63524 -1.23461,-7.68678 -2.74357,-13.44784 -4.1893,-15.99427 -5.25707,-22.60159 -6.55366,-40.55407 l -1.19361,-16.52651 5.8294,-5.82941 c 3.20617,-3.20617 6.20704,-7.01924 6.6686,-8.47348 1.28867,-4.0602 2.39931,-3.20213 5.66755,4.37867 2.17096,5.03558 3.00798,9.57454 3.00786,16.31057 -1e-4,5.13333 0.94007,15.33333 2.08927,22.66667 3.07691,19.63448 2.89097,32.15361 -0.57855,38.95445 -2.5287,4.95668 -7.26878,9.71221 -9.68065,9.71221 -0.49171,0 -1.2582,-0.94906 -1.70332,-2.10905 z"
         transform="translate(-81.472354,-7.0321492)"
         id="path1975" />
      <path
         style="fill:#a05a2c;stroke-width:1.33333"
         d="m 357.97007,531.99774 c 0.55268,-1.28333 1.28186,-6.00639 1.62042,-10.49568 0.50026,-6.63341 -0.29582,-11.34044 -4.24993,-25.12893 -4.83715,-16.86767 -7.9466,-34.44472 -9.15924,-51.7751 -0.59505,-8.50416 -0.43031,-9.20009 2.65673,-11.2228 2.15034,-1.40896 6.40554,-2.19474 12.27599,-2.26696 l 8.98487,-0.11053 1.52814,18 c 0.92691,10.9178 3.16364,24.55759 5.68487,34.66667 5.36561,21.5139 5.10856,33.15705 -0.92143,41.73669 -4.5199,6.43105 -8.63297,8.88259 -14.9493,8.91032 -3.76007,0.0165 -4.31526,-0.35355 -3.47112,-2.31368 z"
         transform="translate(-81.472354,-7.0321492)"
         id="path1973" />
      <path
         style="fill:#a05a2c;stroke-width:1.33333"
         d="m 210.99719,624.66441 c 0.50522,-13.1783 1.62654,-24.32359 2.86217,-28.44847 1.98573,-6.62895 9.09533,-18.02689 11.06617,-17.74104 0.5454,0.0791 3.89888,3.34409 7.45218,7.25553 l 6.46052,7.11171 -3.5587,4.66569 c -5.54469,7.26947 -8.69569,17.05818 -8.69569,27.0135 0,9.94561 -3.00153,16.4534 -9.12191,19.77765 -7.36036,3.99776 -7.36966,3.96947 -6.46474,-19.63457 z"
         transform="translate(-81.472354,-7.0321492)"
         id="path1971" />
      <path
         style="fill:#a05a2c;stroke-width:1.33333"
         d="m 231.35579,659.33107 c 0.59562,-1.65 1.15693,-12.6 1.24733,-24.33333 0.18505,-24.01617 0.24784,-24.23223 11.475,-39.48684 8.8114,-11.97225 10.52003,-16.58141 10.43047,-28.137 -0.0891,-11.49648 -2.25346,-18.81768 -5.76192,-19.49052 -2.1731,-0.41675 -2.39172,0.10947 -1.65518,3.98376 2.5785,13.56277 2.49808,21.97953 -0.26977,28.23672 -1.51503,3.42497 -3.63735,6.22721 -4.71625,6.22721 -3.05795,0 -12.20838,-11.25072 -13.99183,-17.20336 -1.9568,-6.53124 -1.21235,-9.78254 5.35625,-23.39277 2.9957,-6.20709 5.11087,-12.55835 5.10651,-15.33333 -0.0165,-10.52543 -5.96215,-22.54711 -9.45369,-19.11476 -1.31,1.2878 -1.12327,2.79168 0.90536,7.29114 3.80276,8.43452 3.03221,14.78639 -3.36672,27.75308 -4.89907,9.9274 -5.52607,12.20844 -5.05434,18.38762 0.50643,6.6334 0.27043,7.28969 -3.95537,11 -6.40948,5.6276 -7.94853,5.11358 -9.82743,-3.28219 -1.36302,-6.09067 -1.27317,-8.59879 0.57106,-15.94069 2.87078,-11.42867 2.91069,-25.25214 0.0811,-28.08175 -3.41938,-3.41939 -4.55944,-1.1434 -3.67342,7.33359 0.59329,5.67621 0.1511,10.4742 -1.54159,16.72752 -1.67332,6.18176 -2.14612,11.20318 -1.60273,17.02217 1.08521,11.62163 2.78465,15.5004 6.79129,15.5004 h 3.26543 l -2.56576,7.30003 c -1.41116,4.01501 -2.56575,8.51501 -2.56575,10 0,3.49257 -2.12604,3.41416 -7.51311,-0.27712 -6.21941,-4.26162 -9.77561,-11.50363 -11.81589,-24.06243 -0.97935,-6.02827 -2.8002,-16.36048 -4.04635,-22.96048 -6.36808,-33.72756 5.5314,-67.36032 28.02227,-79.20228 2.92248,-1.53875 6.07248,-2.79772 7,-2.79772 0.92753,0 1.68641,-1.2 1.68641,-2.66667 0,-3.63484 -3.89134,-3.45062 -11.71098,0.55442 -12.4481,6.37562 -22.01812,19.18034 -28.25724,37.80825 -4.29898,12.83524 -5.22942,24.16253 -3.48614,42.44025 l 1.03035,10.80292 -4.94823,4.07875 c -5.16694,4.25904 -12.24982,6.37159 -16.66457,4.9704 -2.51252,-0.79745 -2.50125,-0.93681 0.39163,-4.84683 2.76313,-3.73466 3.04013,-5.92217 3.83045,-30.2503 0.73041,-22.48342 1.33617,-27.9091 4.24628,-38.03306 6.92364,-24.0866 12.32909,-30.97197 31.29089,-39.85777 8.23802,-3.86047 10.98228,-5.77781 10.64091,-7.43455 -0.28573,-1.38666 -1.45201,-2.0588 -3.07835,-1.77408 -5.68897,0.996 -21.84174,9.44923 -27.05393,14.15814 -6.06355,5.47805 -13.60584,19.30429 -16.33103,29.9374 -0.96266,3.75612 -2.38398,6.6381 -3.1585,6.4044 -3.48499,-1.05158 -7.4082,-12.21959 -7.4082,-21.0886 0,-21.70143 16.82824,-36.12824 45.75552,-39.2261 7.33416,-0.78541 8.96642,-1.37898 8.6332,-3.13942 -0.9494,-5.01592 -19.77346,-2.81474 -34.67758,4.05501 -7.4549,3.43619 -9.8706,3.99836 -12.78189,2.97451 -3.73815,-1.31464 -8.40048,-8.70999 -5.99635,-9.51138 0.73363,-0.24453 4.57386,-2.49068 8.53382,-4.99142 23.37922,-14.76411 27.02784,-16.16338 38.53328,-14.77779 13.15293,1.58399 13.891,1.54056 14.37525,-0.84593 0.65708,-3.23811 -8.41492,-5.37404 -20.55567,-4.83968 -9.47256,0.41692 -9.82568,0.32293 -9.82269,-2.61444 0.009,-9.22027 9.5506,-14.67444 28.45104,-16.2639 14.76205,-1.24142 20.74491,-2.85654 26.8854,-7.25793 2.2,-1.57692 7.30443,-3.87883 11.34316,-5.11535 9.29555,-2.84598 17.43856,-9.29514 14.95348,-11.84296 -1.3708,-1.40538 -2.15177,-1.42032 -4,-0.0764 -9.97225,7.25091 -27.88839,10.59162 -34.29388,6.39458 -3.74256,-2.45222 -4.37839,-4.79108 -1.30247,-4.79108 1.11851,0 5.88095,-3.57915 10.58322,-7.95366 9.30021,-8.65196 10.06593,-8.95852 24.47862,-9.8004 10.47295,-0.61174 13.72827,-2.17689 11.1041,-5.33882 -1.22592,-1.47715 -2.99596,-1.6105 -8.38234,-0.6315 -9.45525,1.71855 -18.75593,-0.6294 -23.14226,-5.84225 -1.8379,-2.18423 -3.29983,-4.37527 -3.24875,-4.86901 0.0511,-0.49374 3.74208,-3.2977 8.20221,-6.23103 9.11503,-5.99475 16.33962,-15.378 18.5262,-24.06173 l 1.43294,-5.6907 9.53956,5.09855 c 10.00564,5.34765 21.65677,9.31031 27.44821,9.33537 2.88281,0.012 3.84659,1.09956 6.09133,6.87067 1.99947,5.14051 3.83428,7.47568 7.33334,9.33317 4.66404,2.47594 4.66732,2.47563 5.82646,-0.53734 0.6379,-1.65806 1.82502,-4.43142 2.63804,-6.163 1.34838,-2.8718 1.59787,-2.94395 2.8402,-0.82139 2.92754,5.00181 7.8546,10.15601 11.52079,12.05187 3.80845,1.96942 3.84117,1.95325 3.84117,-1.90019 0,-2.13759 1.11643,-5.26524 2.48094,-6.95035 l 2.48094,-3.06384 1.54418,4.67891 c 0.84929,2.5734 3.55018,6.62321 6.00197,8.99957 l 4.4578,4.32067 0.88856,-5.55675 c 1.57245,-9.83361 2.30852,-10.75836 25.19249,-31.64978 6.75718,-6.16882 9.17843,-11.2578 9.94395,-20.90012 0.74013,-9.32267 -1.33736,-18.40679 -5.06116,-22.13059 -3.11527,-3.11527 -3.46451,-10.88263 -0.59633,-13.263 2.50122,-2.07584 2.50122,-7.62456 0,-12 -1.04803,-1.83333 -1.92678,-4.75331 -1.95275,-6.48884 -0.0384,-2.56115 0.48199,-3.01711 2.76251,-2.42075 1.54537,0.40414 4.12573,0.23444 5.73416,-0.37708 6.12413,-2.32838 10.34448,0.0616 22.53162,12.75944 9.9419,10.35854 13.71648,13.28566 22.94798,17.79572 11.61302,5.67351 13.97648,8.61164 13.97648,17.37487 0,5.25744 -1.12064,5.59725 -6.47044,1.96196 -5.4063,-3.67367 -10.8629,-4.32983 -10.8629,-1.30628 0,1.08117 1.89076,2.94351 4.20171,4.13855 8.20861,4.24484 16.54092,15.83257 17.2074,23.9303 0.67885,8.24819 0.19275,8.63391 -4.70655,3.73462 -3.06472,-3.06472 -5.62213,-4.4851 -7.56222,-4.2 -4.47299,0.65729 -4.44043,3.36806 0.0684,5.69969 5.1828,2.68013 6.61828,5.451 10.29836,19.87873 3.29626,12.92295 5.4474,16.26442 11.29778,17.54938 2.12396,0.4665 3.86175,1.65448 3.86175,2.63994 0,3.31732 -6.5752,9.68027 -10.61604,10.27334 -3.65497,0.53644 -4.23995,0.0297 -7.38309,-6.39458 -1.8775,-3.83745 -5.70359,-9.04604 -8.50246,-11.57464 -5.62564,-5.08242 -16.258,-9.73572 -19.44813,-8.51154 -4.05204,1.5549 -2.07276,4.54821 4.02228,6.08297 12.30937,3.09953 20.58296,15.63956 26.70553,40.47681 2.34355,9.50698 7.309,15.644 12.65755,15.644 2.98935,0 3.10323,0.4969 1.01324,4.42099 -2.39809,4.50259 -5.32079,6.15709 -10.95811,6.20328 -4.22894,0.0347 -5.99124,-0.82211 -9.63242,-4.68289 -2.46236,-2.61086 -5.33746,-7.69172 -6.42522,-11.35459 -2.51614,-8.47277 -3.07516,-9.30713 -5.58929,-8.34236 -4.11981,1.58092 1.25305,16.90403 8.79712,25.08891 9.84109,10.67701 16.00087,22.905 16.01827,31.79849 0.0107,5.31628 -3.65126,12.44356 -7.97444,15.52195 l -3.65314,2.60125 -0.73526,-7.12404 c -0.91611,-8.87623 -4.62412,-16.33168 -13.65955,-27.46432 -3.86869,-4.76667 -8.4142,-11.51667 -10.10111,-15 -3.04324,-6.28404 -5.95805,-8.05685 -7.33729,-4.4626 -1.10121,2.86973 4.28259,12.34727 13.70687,24.12927 10.65136,13.31606 13.35408,21.11657 11.09196,32.01317 -1.53718,7.40455 -5.92396,14.11673 -11.00231,16.83459 -2.58305,1.3824 -2.67399,1.18272 -1.83909,-4.03842 1.72346,-10.77798 -1.02778,-16.56294 -13.99936,-29.43609 -9.23236,-9.16232 -12.81126,-13.84439 -16.46487,-21.54013 -4.4514,-9.37616 -4.68437,-10.59446 -5.01332,-26.216 -0.26547,-12.60686 -0.79128,-16.6585 -2.28132,-17.5787 -3.45564,-2.13406 -4.35708,0.12267 -3.44628,8.62756 1.03113,9.6286 -1.02279,22.9547 -4.6268,30.01914 -3.70761,7.2675 -12.08511,14.20452 -18.45348,15.28045 -7.05803,1.19244 -8.48615,0.2662 -6.70099,-4.34611 0.7705,-1.9907 1.85896,-11.71946 2.41882,-21.61946 1.08073,-19.11086 2.31382,-23.60555 9.58441,-34.93576 3.96988,-6.18647 4.13239,-9.06424 0.51188,-9.06424 -1.87632,0 -10.00475,12.36538 -12.74417,19.38709 -0.84676,2.17044 -2.2644,13.02551 -3.1503,24.1224 -1.75516,21.98536 -2.86617,25.14684 -10.52916,29.96172 -4.26238,2.67817 -4.59388,2.69235 -20.88594,0.89244 -2.17474,-0.24025 -3.44206,0.37581 -3.73475,1.81552 -0.55964,2.75281 5.91276,5.15416 13.89209,5.15416 6.78719,0 7.09888,1.12364 3.81215,13.74227 -5.78988,22.22889 -21.15629,38.16154 -39.01935,40.45721 -6.83529,0.87843 -6.7585,0.59203 1.4551,-5.42748 9.1674,-6.71852 12.8858,-16.20461 10.22513,-26.08557 -1.05583,-3.92103 -2.13561,-5.3531 -4.03627,-5.3531 -2.36616,0 -2.52345,0.68294 -1.78485,7.74954 1.07645,10.29892 -1.19497,14.45838 -12.17369,22.29264 -4.76194,3.39805 -10.69998,8.56378 -13.19566,11.47941 -4.97934,5.81725 -8.01425,15.22493 -6.65658,20.63431 0.77454,3.08605 0.5949,3.31573 -1.64436,2.1024 -3.91423,-2.1209 -9.53224,-8.54026 -11.09575,-12.67843 -4.24596,-11.23784 1.1978,-23.50819 18.25353,-41.14384 4.0315,-4.16856 5.75142,-6.94557 5.19682,-8.39083 -0.64224,-1.67366 -1.40368,-1.85261 -3.38078,-0.79449 -4.00865,2.14536 -17.37512,17.41784 -21.46786,24.52911 l -3.71015,6.44648 -2.15487,-3.07648 c -2.89397,-4.13174 -2.72512,-15.10415 0.33574,-21.81648 1.3376,-2.93334 5.5295,-8.93334 9.31532,-13.33334 10.71237,-12.45025 14.85768,-23.72894 10.9749,-29.86096 -1.97853,-3.12466 -5.6408,-0.70685 -4.68678,3.0942 1.33381,5.31438 -1.77606,12.14179 -10.22414,22.44608 -10.4081,12.69496 -13.76489,19.73403 -13.82346,28.98735 -0.0368,5.81443 0.77789,8.71415 3.93344,14 2.5366,4.24907 4.08857,8.81072 4.27965,12.57901 0.44271,8.7307 5.39612,17.33074 12.89327,22.38508 5.8274,3.92866 15.33653,7.65771 16.51701,6.47722 0.26753,-0.26752 -0.44873,-2.72454 -1.59169,-5.46003 -3.26384,-7.81147 -2.69415,-15.41825 1.58856,-21.21089 3.65538,-4.94415 3.69948,-4.96035 14.33333,-5.26432 8.47852,-0.24235 12.03481,-1.01376 17.33605,-3.76042 8.1016,-4.19756 19.50566,-15.95686 23.5522,-24.28586 1.63706,-3.36955 3.3794,-6.12646 3.87188,-6.12646 0.49248,0 1.29759,3.5546 1.78911,7.89912 0.49153,4.34452 3.00967,15.24898 5.59587,24.23211 6.3152,21.93583 6.84934,27.23608 3.50634,34.79348 -3.99924,9.04093 -12.2094,14.34252 -27.35856,17.66636 -2.73698,0.60052 -3.90888,1.82217 -4.47809,4.66824 -1.07975,5.39875 -7.00931,11.91305 -12.14813,13.34611 -3.43226,0.95716 -4.33334,0.8119 -4.33334,-0.6985 0,-1.0488 -1.2,-1.90692 -2.66666,-1.90692 -2.86687,0 -3.20312,1.26375 -2.73139,10.26544 0.71888,13.7174 -7.15252,27.08426 -19.16085,32.53814 -5.50942,2.50222 -11.4411,3.32053 -11.4411,1.57837 0,-0.52327 3.15,-7.17859 7,-14.78961 l 7,-13.83823 v -14.21039 c 0,-16.62306 -2.3552,-26.87705 -6.17328,-26.87705 -3.04576,0 -3.04989,0.27829 -0.20913,14.07915 3.1402,15.25554 1.60511,23.45389 -8.10349,43.27761 -7.06514,14.42609 -7.57338,16.13641 -8.80402,29.62705 -1.78901,19.61174 -7.17825,29.66931 -19.04561,35.54355 -7.5186,3.72165 -9.62147,3.67205 -8.22585,-0.19403 z"
         transform="translate(-81.472354,-7.0321492)"
         id="path1969" />
    </g>
    <g
       id="layer7"
       inkscape:label="Antlers">
      <path
         style="fill:#ffeeaa;stroke-width:1.33333"
         d="m 359.32359,163.02034 c -1.60784,-10.72188 -9.37206,-23.7887 -22.52568,-37.90972 -13.2036,-14.17466 -19.24079,-23.16188 -23.87186,-35.536679 -4.3263,-11.560451 -4.27758,-34.705308 0.1012,-48.065114 1.71052,-5.218898 4.43112,-11.677826 6.04575,-14.353173 l 2.93571,-4.864267 -0.0457,19.01984 c -0.0484,20.110756 1.3091,28.308228 6.7374,40.685982 4.77902,10.897421 17.8329,28.934221 32.56842,45.000521 l 13.45181,14.66667 -0.61217,10.37981 c -0.75706,12.83636 -3.04082,16.95352 -9.40398,16.95352 -4.2903,0 -4.52336,-0.25889 -5.3809,-5.97739 z"
         transform="translate(-81.472354,-7.0321492)"
         id="path1993" />
      <path
         style="fill:#ffeeaa;stroke-width:1.33333"
         d="m 743.90006,185.18077 c -17.77353,-5.84685 -26.68612,-7.10324 -56.64954,-7.98575 l -29.33334,-0.86396 12,-7.46165 c 14.09316,-8.7632 15.79928,-12.03219 7.984,-15.29763 -5.82724,-2.43477 -13.03148,-1.63512 -26.50953,2.9425 -11.79151,4.00481 -19.10136,8.24461 -31.35647,18.18712 l -9.88201,8.01722 -21.45132,2.37927 c -11.79824,1.30858 -36.2376,3.9588 -54.30968,5.88938 l -32.85834,3.51014 -24.96675,-15.05687 -24.96673,-15.05684 4.46962,-1.8238 c 12.88803,-5.25886 15.36046,-9.71136 22.46378,-40.45415 7.03229,-30.435339 12.16,-41.122073 26.8802,-56.021411 5.84056,-5.91163 10.90674,-10.460862 11.2582,-10.109404 0.35146,0.351459 -1.16727,4.664886 -3.37495,9.585391 -11.02404,24.570499 -16.69819,48.595324 -15.75155,66.693314 0.73451,14.04241 3.78495,22.33058 10.20783,27.73508 5.50147,4.62918 10.88487,5.53918 27.34428,4.62225 26.29016,-1.46457 48.47217,-9.93265 62.33689,-23.79737 7.48128,-7.48129 18.71051,-22.07882 45.88332,-59.646487 26.64481,-36.837678 45.79892,-54.124964 69.06496,-62.333704 4.83548,-1.706056 3.60912,-0.198651 -13.40468,16.476568 -17.98437,17.626489 -18.99568,18.909662 -25.49961,32.354424 -9.58602,19.815957 -13.85151,33.292889 -14.58586,46.084319 -0.67324,11.72714 1.42142,18.13028 7.91126,24.18388 8.37234,7.80957 28.7134,12.23704 44.62798,9.7138 23.19134,-3.67696 37.49563,-16.81922 52.46928,-48.206879 l 6.5715,-13.77512 0.0556,9.699977 c 0.0759,13.260102 -2.80132,20.608982 -15.77174,40.283542 -5.98232,9.07444 -11.56981,18.81161 -12.41666,21.63817 -2.36134,7.88143 0.85113,11.16529 17.60854,17.99989 18.13858,7.39791 18.34826,7.64452 12.48638,14.68596 l -4.69596,5.64085 -7.57752,-3.78769 c -4.16764,-2.08323 -11.48523,-5.07319 -16.26131,-6.64433 z"
         transform="translate(-81.472354,-7.0321492)"
         id="path1991" />
      <path
         style="fill:#ffeeaa;stroke-width:1.33333"
         d="m 874.49251,312.19086 c -9.7648,-2.88579 -20.05212,-8.10399 -37.753,-19.15004 -26.16826,-16.33005 -39.4831,-19.57131 -75.21986,-18.31092 -12.24803,0.43197 -33.96913,2.32928 -48.26913,4.21625 -40.00439,5.27883 -73.82022,4.66028 -112,-2.04864 -19.80654,-3.48038 -39.33991,-10.00841 -59.33335,-19.8291 -18.78388,-9.22658 -61.78653,-34.76959 -82.66666,-49.10292 -21.62488,-14.84458 -29.39054,-18.1823 -43.64728,-18.75982 -7.91316,-0.32054 -13.50756,0.16204 -17.44972,1.50527 -5.65098,1.92549 -6.01374,1.87145 -13.8974,-2.07005 -11.263,-5.63104 -13.81646,-11.94925 -8.0056,-19.80885 2.69049,-3.63908 2.99956,-5.59375 2.99578,-18.94602 -0.004,-14.24825 -0.28165,-15.71793 -6.458,-34.18694 -7.85344,-23.483899 -9.30009,-37.316647 -5.62856,-53.819501 4.05515,-18.227062 14.80414,-35.586701 27.91656,-45.085294 8.35224,-6.050337 9.01235,-4.750323 3.31912,6.536782 -12.12977,24.047903 -15.7597,46.743782 -10.68544,66.809798 1.547,6.117521 5.42336,16.312935 8.61414,22.656475 3.19077,6.34355 6.54965,14.53372 7.46417,18.20039 2.74279,10.99697 8.51045,17.42887 23.46223,26.16421 46.90697,27.40471 59.60129,35.03227 74.62046,44.83679 9.50791,6.20677 20.75191,13.95112 24.98663,17.20966 4.23473,3.25856 11.07473,7.46987 15.20001,9.35848 6.4195,2.93895 8.80908,3.34022 16.58026,2.78419 12.80478,-0.91619 17.68342,-4.25713 38.66434,-26.47791 18.85055,-19.96452 33.42973,-32.54526 43.81168,-37.80618 8.94379,-4.53216 24.50849,-8.99245 29.64776,-8.496 4.40383,0.42541 4.38956,0.4432 -4.52073,5.63764 -23.27375,13.56788 -41.45834,36.1057 -48.33144,59.90156 -3.91728,13.5623 -0.13107,20.85154 13.34104,25.68437 10.17838,3.65127 44.68324,3.38043 62.66666,-0.49189 23.99535,-5.16687 47.78042,-19.43988 70.9668,-42.586 20.47791,-20.44235 32.69358,-39.70419 40.24809,-63.46369 4.58814,-14.43013 11.11392,-45.357557 13.66877,-64.780054 l 1.64752,-12.524827 2.32356,5.471036 c 7.44123,17.521119 6.79783,54.641925 -1.48925,85.920495 -3.34211,12.61441 -7.78196,22.87608 -13.48246,31.16145 -14.02684,20.38732 -12.63366,41.90739 3.35187,51.77539 5.71576,3.52838 7.79235,4.05081 16,4.02522 8.31889,-0.026 10.54979,-0.62353 18.90721,-5.06468 12.51935,-6.65281 34.87644,-24.54578 46.62862,-37.31813 5.19057,-5.64115 12.69057,-15.33517 16.66666,-21.54228 3.9761,-6.2071 7.76543,-11.30661 8.42074,-11.33224 2.18844,-0.0856 -0.49259,18.51197 -3.88735,26.96541 -6.67169,16.61355 -29.56179,41.44918 -51.90305,56.31454 -6.27044,4.17221 -12.64775,9.17108 -14.1718,11.1086 -6.74546,8.57544 2.21346,19.17737 26.10406,30.89141 8.8,4.31481 20.94971,9.53149 26.99935,11.59261 6.04964,2.06112 10.99964,4.1379 11,4.61504 0.003,3.65896 -26.65744,4.84074 -37.42401,1.65891 z"
         transform="translate(-81.472354,-7.0321492)"
         id="path1985" />
    </g>
  </g>
</svg>
